<mxfile host="Electron" modified="2023-05-25T05:39:53.018Z" agent="Mozilla/5.0 (Macintosh; Intel Mac OS X 10_15_7) AppleWebKit/537.36 (KHTML, like Gecko) draw.io/21.2.8 Chrome/112.0.5615.165 Electron/24.2.0 Safari/537.36" etag="Glt5mnD6MU0UJn4VcDeK" version="21.2.8" type="device">
  <diagram name="Page-1" id="b5z6_zm4iA-ZvroIsW5K">
    <mxGraphModel dx="984" dy="718" grid="1" gridSize="10" guides="1" tooltips="1" connect="1" arrows="1" fold="1" page="1" pageScale="1" pageWidth="1169" pageHeight="827" math="0" shadow="0">
      <root>
        <mxCell id="0" />
        <mxCell id="1" parent="0" />
        <mxCell id="VCfrBWGv4BP9SNeVaCzs-26" value="Type 1&lt;br&gt;(Heuristic)" style="swimlane;childLayout=stackLayout;horizontal=1;startSize=50;horizontalStack=0;rounded=1;fontSize=14;fontStyle=0;strokeWidth=2;resizeParent=0;resizeLast=1;shadow=0;dashed=0;align=center;arcSize=4;whiteSpace=wrap;html=1;fillColor=#dae8fc;strokeColor=#6c8ebf;" vertex="1" parent="1">
          <mxGeometry x="240" y="240" width="200" height="130" as="geometry" />
        </mxCell>
        <mxCell id="VCfrBWGv4BP9SNeVaCzs-27" value="+ Quicker / Easier&lt;br&gt;+ More likely under time pressure&lt;br&gt;+ Imprecise, Prone to error&lt;br&gt;+ Mostly left hemisphere&lt;br&gt;+ Less important judgments" style="align=left;strokeColor=none;fillColor=none;spacingLeft=4;fontSize=12;verticalAlign=top;resizable=0;rotatable=0;part=1;html=1;" vertex="1" parent="VCfrBWGv4BP9SNeVaCzs-26">
          <mxGeometry y="50" width="200" height="80" as="geometry" />
        </mxCell>
        <mxCell id="VCfrBWGv4BP9SNeVaCzs-28" value="Type 2&lt;br&gt;(Normative)" style="swimlane;childLayout=stackLayout;horizontal=1;startSize=50;horizontalStack=0;rounded=1;fontSize=14;fontStyle=0;strokeWidth=2;resizeParent=0;resizeLast=1;shadow=0;dashed=0;align=center;arcSize=4;whiteSpace=wrap;html=1;fillColor=#dae8fc;strokeColor=#6c8ebf;" vertex="1" parent="1">
          <mxGeometry x="480" y="240" width="200" height="130" as="geometry" />
        </mxCell>
        <mxCell id="VCfrBWGv4BP9SNeVaCzs-29" value="+ Slower / More effortful&lt;br&gt;+ More likely when attention req&#39;d&lt;br&gt;+ More accurate&lt;br&gt;+ Judgements that really matter&lt;br&gt;+ Mostly right hemisphere" style="align=left;strokeColor=none;fillColor=none;spacingLeft=4;fontSize=12;verticalAlign=top;resizable=0;rotatable=0;part=1;html=1;" vertex="1" parent="VCfrBWGv4BP9SNeVaCzs-28">
          <mxGeometry y="50" width="200" height="80" as="geometry" />
        </mxCell>
        <mxCell id="VCfrBWGv4BP9SNeVaCzs-31" value="&lt;b&gt;&lt;font style=&quot;font-size: 18px;&quot;&gt;Dual Process Model&lt;/font&gt;&lt;/b&gt;" style="text;html=1;strokeColor=none;fillColor=none;align=center;verticalAlign=middle;whiteSpace=wrap;rounded=0;" vertex="1" parent="1">
          <mxGeometry x="360" y="184" width="200" height="30" as="geometry" />
        </mxCell>
      </root>
    </mxGraphModel>
  </diagram>
</mxfile>
